<?xml version="1.0" encoding="utf-8"?>
<!-- Generator: Adobe Illustrator 16.0.4, SVG Export Plug-In . SVG Version: 6.00 Build 0)  -->
<!DOCTYPE svg PUBLIC "-//W3C//DTD SVG 1.1//EN" "http://www.w3.org/Graphics/SVG/1.1/DTD/svg11.dtd">
<svg version="1.1" xmlns="http://www.w3.org/2000/svg" xmlns:xlink="http://www.w3.org/1999/xlink" x="0px" y="0px"
	 width="580.539px" height="580.539px" viewBox="0 0 580.539 580.539" enable-background="new 0 0 580.539 580.539"
	 xml:space="preserve">
<g id="hours" display="none">
	<rect x="302.539" y="284.103" display="inline" fill="#FFFFFF" width="195" height="10"/>
</g>
<g id="minutes" display="none">
	
		<rect x="160.539" y="224.103" transform="matrix(-0.7071 -0.7071 0.7071 -0.7071 232.7013 558.5931)" display="inline" fill="#FFFFFF" width="143" height="14"/>
</g>
<g id="bg">
	<path fill="#FFFFFF" d="M290.27,580.539c-77.534,0-150.427-30.193-205.251-85.018C30.193,440.696,0,367.804,0,290.27
		S30.193,139.843,85.018,85.018S212.736,0,290.27,0c77.534,0,150.427,30.193,205.252,85.018
		c54.824,54.825,85.018,127.717,85.018,205.251s-30.193,150.427-85.018,205.252C440.696,550.346,367.804,580.539,290.27,580.539z
		 M290.27,26c-70.589,0-136.953,27.489-186.867,77.403S26,219.681,26,290.27s27.489,136.953,77.403,186.867
		c49.914,49.913,116.278,77.402,186.867,77.402s136.953-27.489,186.867-77.402c49.913-49.914,77.402-116.278,77.402-186.867
		s-27.489-136.953-77.402-186.867C427.223,53.489,360.858,26,290.27,26z"/>
	<circle fill="#FFFFFF" stroke="#FFFFFF" stroke-width="5" stroke-miterlimit="10" cx="290.27" cy="290.27" r="12.707"/>
</g>
</svg>
