<?xml version="1.0" encoding="utf-8"?>
<!-- Generator: Adobe Illustrator 16.0.4, SVG Export Plug-In . SVG Version: 6.00 Build 0)  -->
<!DOCTYPE svg PUBLIC "-//W3C//DTD SVG 1.1//EN" "http://www.w3.org/Graphics/SVG/1.1/DTD/svg11.dtd">
<svg version="1.1" id="Calque_1" xmlns="http://www.w3.org/2000/svg" xmlns:xlink="http://www.w3.org/1999/xlink" x="0px" y="0px"
	 width="756px" height="218.972px" viewBox="0 0 756 218.972" enable-background="new 0 0 756 218.972" xml:space="preserve">
<g>
	<path fill="#E3000B" d="M0,0v218.972h756V0H0z"/>
</g>
<g>
	<polygon fill="#FFFFFF" points="130.586,172.125 43.887,172.125 43.887,49.834 79.14,49.834 79.14,142.101 130.586,142.101 	"/>
	<path fill="#FFFFFF" d="M246.8,172.125h-35.253v-46.554H171.91v46.554h-35.252V98.003c-8.018,7.498-19.284,13.163-32.903,16.099
		l-0.376-1.508c16.93-5.096,28.134-15.675,28.639-27.127l0.046-1.052l-1.508,0.01c-20.56,0-27.886-11.334-27.886-21.941
		c0-9.736,7.925-20.084,22.613-20.084c6.671,0,13.371,2.382,18.125,7.435h28.502v46.047h39.637V49.834H246.8V172.125z"/>
	<polygon fill="#FFFFFF" points="349.522,79.69 288.801,79.69 288.801,95.881 343.956,95.881 343.956,125.571 288.801,125.571 
		288.801,142.101 349.522,142.101 349.522,172.125 253.548,172.125 253.548,49.834 349.522,49.834 	"/>
	<g>
		<path fill="#FFFFFF" d="M447.186,105.664c8.603-4.893,13.492-13.661,13.492-23.783c0-26.144-20.41-32.047-47.734-32.047h-57.012
			v122.291h59.205c30.021,0,50.095-11.131,50.095-38.962C465.231,120.34,458.317,110.556,447.186,105.664z M391.183,77.664h23.447
			c6.748,0,10.459,4.555,10.459,10.29s-3.711,10.12-10.459,10.12h-23.447V77.664z M416.822,144.296h-25.64v-23.452h25.64
			c7.931,0,12.316,5.063,12.316,11.814C429.139,139.235,424.753,144.296,416.822,144.296z"/>
	</g>
	<g>
		<path fill="#FFFFFF" d="M513.81,49.834h-44.7v122.291h44.7c40.313,0,70.674-14.504,70.674-61.231
			C584.483,64.339,554.123,49.834,513.81,49.834z M514.989,143.621h-10.627V78.338h10.627c19.4,0,32.893,4.723,32.893,32.555
			C547.882,138.899,534.39,143.621,514.989,143.621z"/>
	</g>
	<g>
		<path fill="#FFFFFF" d="M653.811,46.966c-37.785,0-65.109,23.446-65.109,63.759c0,40.315,27.324,63.595,65.109,63.595
			c37.779,0,65.104-23.279,65.104-63.595C718.915,70.412,691.59,46.966,653.811,46.966z M653.811,145.644
			c-14.173,0-28.509-10.795-28.509-34.918c0-24.121,14.336-35.084,28.509-35.084c14.164,0,28.504,10.964,28.504,35.084
			C682.314,134.849,667.975,145.644,653.811,145.644z"/>
	</g>
</g>
<path d="M103.017,115.279c28-5.735,48.072-23.446,48.072-46.555c0-17.71-11.638-27.325-25.807-27.325
	c-14.676,0-23.613,10.121-23.613,21.084c0,11.976,8.601,23.107,29.348,22.939c-0.506,11.47-12.313,21.76-28.842,26.482
	L103.017,115.279z"/>
</svg>
