<?xml version="1.0" encoding="utf-8"?>
<!-- Generator: Adobe Illustrator 16.0.4, SVG Export Plug-In . SVG Version: 6.00 Build 0)  -->
<!DOCTYPE svg PUBLIC "-//W3C//DTD SVG 1.1//EN" "http://www.w3.org/Graphics/SVG/1.1/DTD/svg11.dtd">
<svg version="1.1" id="Calque_1" xmlns="http://www.w3.org/2000/svg" xmlns:xlink="http://www.w3.org/1999/xlink" x="0px" y="0px"
	 width="163.341px" height="64px" viewBox="17.875 0 163.341 64" enable-background="new 17.875 0 163.341 64" xml:space="preserve"
	>
<g id="Page-1">
	<g id="logo">
		<path id="Fill-2" fill="#FFFFFF" d="M38.856,36.652l-0.44,6.877h-19.82v-0.238c0.574-0.033,2.023-0.168,2.495-0.37
			c0.81-0.304,1.047-0.91,1.047-1.651V22.865c0-0.74-0.203-1.314-1.046-1.685c-0.606-0.27-1.886-0.404-2.493-0.44v-0.234H30.09
			v0.235c-0.606,0.036-1.82,0.07-2.426,0.27c-0.842,0.271-1.045,0.945-1.045,1.688v17.427c0,2.694,0.606,3,3.808,3
			c2.057,0,3.91-0.067,4.652-0.812c1.046-1.078,2.933-4.348,3.506-5.662H38.856"/>
		<path id="Fill-3" fill="#FFFFFF" d="M39.216,43.529v-0.237c0.775-0.033,2.056-0.202,2.528-0.37c0.81-0.27,1.045-0.843,1.045-1.584
			V22.865c0-0.74-0.204-1.382-1.046-1.685c-0.607-0.236-1.786-0.404-2.528-0.44v-0.234H58.26V26.1h-0.336
			c-0.438-1.515-2.596-4.853-4.18-5.055c-0.81-0.1-2.123-0.17-3.168-0.17h-3.304v10.518h2.83c1.89,0,2.496-0.606,2.9-1.045
			c0.608-0.573,1.28-2.528,1.417-3.404h0.335v9.472h-0.336c-0.103-1.01-0.945-3.068-1.417-3.573c-0.44-0.506-1.08-1.045-2.9-1.045
			h-2.83v8.36c0,2.63,0.572,2.966,3.81,2.966c2.122,0,4.38,0.034,5.19-0.774c1.18-1.216,2.966-4.451,3.472-5.562h0.303l-0.438,6.74
			H39.216"/>
		<path id="Fill-4" fill="#FFFFFF" d="M88.846,26.54h-0.302c-0.405-1.484-2.46-5.293-3.91-5.495c-0.776-0.1-1.754-0.135-2.597-0.135
			h-1.483v20.26c0,0.74,0.27,1.348,1.046,1.684c0.404,0.168,2.123,0.405,2.73,0.438v0.237H72.296v-0.238
			c0.606-0.033,2.292-0.202,2.73-0.37c0.81-0.304,1.045-0.944,1.045-1.687V20.91h-1.448c-0.776,0-1.855,0.034-2.596,0.135
			c-1.45,0.202-3.54,4.01-3.944,5.495H67.78v-6.034h21.066V26.54"/>
		<path id="Fill-5" fill="#FFFFFF" d="M89.538,43.529v-0.237c0.776-0.033,2.057-0.202,2.53-0.37c0.808-0.27,1.044-0.843,1.044-1.584
			V22.865c0-0.74-0.202-1.382-1.045-1.685c-0.607-0.236-1.787-0.404-2.53-0.44v-0.234h19.047V26.1h-0.337
			c-0.44-1.515-2.597-4.853-4.181-5.055c-0.811-0.1-2.123-0.17-3.168-0.17h-3.305v10.518h2.83c1.891,0,2.496-0.606,2.9-1.045
			c0.607-0.573,1.279-2.528,1.416-3.404h0.34v9.472h-0.34c-0.1-1.01-0.942-3.068-1.414-3.573c-0.439-0.506-1.08-1.045-2.9-1.045
			h-2.83v8.36c0,2.63,0.572,2.966,3.808,2.966c2.123,0,4.383,0.034,5.188-0.774c1.181-1.216,2.968-4.451,3.474-5.562h0.304
			l-0.438,6.74H89.538"/>
		<path id="Fill-6" fill="#FFFFFF" d="M141.104,43.529H129.24v-0.237c0.572-0.033,2.324-0.168,2.797-0.403
			c0.775-0.404,1.08-0.945,1.08-1.721V22.394l-8.496,20.765h-0.605c-0.338-1.045-1.181-3.472-1.721-4.687L115.484,22.9v15.27
			c0,2.594,0.373,3.809,1.115,4.448c0.571,0.472,2.797,0.64,3.403,0.674v0.237h-9.235v-0.238c0.572-0.066,2.291-0.066,3.101-0.641
			c0.776-0.572,1.08-1.887,1.08-4.449v-13.82c0-1.382-0.339-2.326-1.013-2.865c-0.811-0.64-2.09-0.74-3-0.776v-0.234h8.189
			l7.383,16.584l5.631-13.72c0.506-1.213,0.709-2.494,0.739-2.864h8.192v0.235c-0.606,0.036-1.854,0.204-2.461,0.406
			c-0.842,0.27-1.045,0.91-1.045,1.652v18.37c0,0.742,0.271,1.282,1.045,1.651c0.371,0.203,1.854,0.439,2.494,0.473V43.529"/>
		<path id="Fill-7" fill="#FFFFFF" d="M153.016,33.18h-2.123v8.057c0,0.742,0.235,1.383,1.045,1.687
			c0.403,0.168,1.721,0.337,2.562,0.37v0.236h-11.63v-0.237c0.604-0.033,2.056-0.202,2.493-0.37c0.811-0.304,1.045-0.91,1.045-1.65
			V22.865c0-0.74-0.202-1.382-1.045-1.685c-0.739-0.27-1.955-0.404-2.562-0.44v-0.234H154.5c4.752,0,7.82,1.92,7.82,5.595
			c0,4.788-4.586,7.081-9.305,7.081V33.18L153.016,33.18z M152.645,20.944h-1.752v11.764h1.181c4.313,0,5.225-3.54,5.225-5.798
			C157.297,23.977,156.252,20.944,152.645,20.944z"/>
		<path id="Fill-8" fill="#FFFFFF" d="M172.605,44c-3.405,0-5.664-1.078-6.776-1.82l-1.113,1.652h-0.338l-0.202-8.158h0.303
			c1.652,4.315,4.08,7.889,7.99,7.889c3.202,0,4.551-2.258,4.551-4.687c0-2.022-1.349-3.54-3.605-4.38
			c-1.721-0.676-3.066-1.114-4.584-1.754c-2.729-1.18-4.046-3.304-4.046-6.236c0-3.607,2.967-6.506,7.35-6.506
			c2.66,0,4.888,0.842,6.032,1.686l1.046-1.518h0.336l0.136,7.82h-0.304c-1.278-3.943-3.303-7.55-7.18-7.55
			c-2.123,0-3.91,1.618-3.91,4.01c0,2.024,1.11,3.338,3.438,4.384c1.517,0.707,3.168,1.146,4.482,1.72
			c2.766,1.246,4.553,2.763,4.553,6.337C180.762,41,177.357,44,172.605,44"/>
	</g>
</g>
</svg>
