<?xml version="1.0" encoding="utf-8"?>
<!-- Generator: Adobe Illustrator 16.0.4, SVG Export Plug-In . SVG Version: 6.00 Build 0)  -->
<!DOCTYPE svg PUBLIC "-//W3C//DTD SVG 1.1//EN" "http://www.w3.org/Graphics/SVG/1.1/DTD/svg11.dtd">
<svg version="1.1" id="Calque_1" xmlns="http://www.w3.org/2000/svg" xmlns:xlink="http://www.w3.org/1999/xlink" x="0px" y="0px"
	 width="162.438px" height="85.799px" viewBox="4.449 -83.564 162.438 85.799"
	 enable-background="new 4.449 -83.564 162.438 85.799" xml:space="preserve">
<title>logo</title>
<g>
	<path fill="#E3000B" d="M7.139-81.922v45.412h156.779v-45.412H7.139z"/>
</g>
<g>
	<polygon fill="#FFFFFF" points="34.221,-46.227 16.24,-46.227 16.24,-71.586 23.551,-71.586 23.551,-52.452 34.221,-52.452 	"/>
	<path fill="#FFFFFF" d="M58.322-46.227h-7.311v-9.654h-8.22v9.654H35.48v-15.372c-1.666,1.554-4,2.73-6.826,3.34l-0.075-0.313
		c3.509-1.056,5.833-3.251,5.937-5.625l0.011-0.219l-0.315,0.002c-4.263,0-5.781-2.35-5.781-4.551c0-2.017,1.641-4.163,4.689-4.163
		c1.382,0,2.773,0.494,3.756,1.542h5.914v9.548h8.22v-9.548h7.311V-46.227z"/>
	<polygon fill="#FFFFFF" points="79.623,-65.395 67.031,-65.395 67.031,-62.039 78.465,-62.039 78.465,-55.881 67.031,-55.881 
		67.031,-52.452 79.623,-52.452 79.623,-46.227 59.72,-46.227 59.72,-71.586 79.623,-71.586 	"/>
	<g>
		<path fill="#FFFFFF" d="M99.879-60.01c1.78-1.014,2.797-2.833,2.797-4.932c0-5.422-4.235-6.645-9.901-6.645H80.953v25.359h12.274
			c6.228,0,10.393-2.309,10.393-8.08C103.62-56.966,102.186-58.994,99.879-60.01z M88.264-65.815h4.861
			c1.399,0,2.167,0.944,2.167,2.134c0,1.188-0.768,2.098-2.167,2.098h-4.861V-65.815z M93.579-51.997h-5.315v-4.863h5.315
			c1.646,0,2.553,1.05,2.553,2.451C96.132-53.047,95.225-51.997,93.579-51.997z"/>
	</g>
	<g>
		<path fill="#FFFFFF" d="M113.691-71.586h-9.268v25.359h9.268c8.362,0,14.658-3.008,14.658-12.698
			C128.35-68.578,122.054-71.586,113.691-71.586z M113.938-52.137h-2.202v-13.539h2.202c4.021,0,6.821,0.979,6.821,6.75
			C120.76-53.117,117.962-52.137,113.938-52.137z"/>
	</g>
	<g>
		<path fill="#FFFFFF" d="M142.726-72.182c-7.832,0-13.503,4.863-13.503,13.223c0,8.36,5.671,13.189,13.503,13.189
			c7.837,0,13.503-4.829,13.503-13.189C156.229-67.319,150.562-72.182,142.726-72.182z M142.726-51.718
			c-2.937,0-5.913-2.238-5.913-7.241c0-5.003,2.977-7.276,5.913-7.276s5.913,2.273,5.913,7.276
			C148.639-53.956,145.662-51.718,142.726-51.718z"/>
	</g>
</g>
<path d="M28.503-58.016c5.805-1.189,9.969-4.861,9.969-9.655c0-3.672-2.416-5.666-5.351-5.666c-3.044,0-4.896,2.098-4.896,4.371
	c0,2.485,1.78,4.793,6.083,4.759c-0.104,2.378-2.553,4.514-5.98,5.491L28.503-58.016z"/>
<g id="Page-1">
	<g id="logo">
		<path id="Fill-2" fill="#FFFFFF" d="M26.087-10.049L25.66-3.331H6.296v-0.235c0.561-0.032,1.978-0.164,2.438-0.359
			c0.792-0.299,1.023-0.891,1.023-1.616v-17.979c0-0.721-0.199-1.283-1.023-1.645c-0.59-0.264-1.841-0.395-2.435-0.431v-0.229
			h11.227v0.229c-0.594,0.036-1.779,0.072-2.37,0.263c-0.824,0.266-1.021,0.924-1.021,1.649v17.026c0,2.632,0.59,2.931,3.718,2.931
			c2.011,0,3.821-0.068,4.546-0.792c1.023-1.054,2.865-4.249,3.425-5.531H26.087"/>
		<path id="Fill-3" fill="#FFFFFF" d="M26.439-3.331v-0.232c0.759-0.032,2.008-0.2,2.472-0.362c0.791-0.264,1.02-0.824,1.02-1.549
			v-18.046c0-0.721-0.199-1.35-1.02-1.645c-0.595-0.231-1.748-0.395-2.473-0.431v-0.229h18.607v5.465h-0.328
			c-0.428-1.481-2.536-4.741-4.083-4.938c-0.792-0.098-2.076-0.167-3.096-0.167h-3.227v10.277h2.763
			c1.847,0,2.438-0.592,2.833-1.021c0.595-0.561,1.25-2.469,1.385-3.326h0.328v9.254h-0.329c-0.1-0.987-0.923-2.999-1.384-3.491
			c-0.43-0.496-1.055-1.022-2.836-1.022H34.31v8.168c0,2.569,0.56,2.897,3.722,2.897c2.074,0,4.278,0.034,5.071-0.755
			c1.152-1.189,2.897-4.35,3.393-5.436h0.295l-0.429,6.586H26.439"/>
		<path id="Fill-4" fill="#FFFFFF" d="M74.927-19.93h-0.295c-0.396-1.449-2.403-5.171-3.821-5.368
			c-0.756-0.098-1.712-0.13-2.537-0.13h-1.451v19.792c0,0.723,0.268,1.316,1.024,1.645c0.393,0.164,2.073,0.397,2.668,0.429v0.232
			H58.758v-0.235c0.592-0.032,2.239-0.197,2.667-0.359c0.792-0.299,1.021-0.924,1.021-1.649v-19.854h-1.414
			c-0.758,0-1.813,0.032-2.538,0.13c-1.416,0.197-3.458,3.919-3.85,5.368h-0.3v-5.895h20.583V-19.93"/>
		<path id="Fill-5" fill="#FFFFFF" d="M75.604-3.331v-0.232c0.755-0.032,2.007-0.2,2.467-0.362c0.793-0.264,1.022-0.824,1.022-1.549
			v-18.046c0-0.721-0.197-1.35-1.022-1.645c-0.59-0.231-1.743-0.395-2.47-0.431v-0.229H94.21v5.465h-0.331
			c-0.427-1.481-2.535-4.741-4.08-4.938c-0.795-0.098-2.078-0.167-3.096-0.167h-3.229v10.277h2.766c1.846,0,2.438-0.592,2.833-1.021
			c0.593-0.561,1.251-2.469,1.382-3.326h0.333v9.254h-0.333c-0.097-0.987-0.921-2.999-1.382-3.491
			c-0.429-0.496-1.056-1.022-2.833-1.022h-2.764v8.168c0,2.569,0.558,2.897,3.721,2.897c2.073,0,4.28,0.034,5.067-0.755
			c1.156-1.189,2.899-4.35,3.394-5.436h0.298l-0.43,6.586H75.604"/>
		<path id="Fill-6" fill="#FFFFFF" d="M125.981-3.331H114.39v-0.232c0.561-0.032,2.27-0.165,2.732-0.394
			c0.758-0.396,1.055-0.925,1.055-1.682V-23.98l-8.301,20.287h-0.591c-0.33-1.021-1.152-3.392-1.681-4.58l-6.652-15.213v14.918
			c0,2.534,0.361,3.721,1.089,4.346c0.559,0.459,2.732,0.625,3.326,0.659v0.232h-9.026v-0.235c0.562-0.063,2.24-0.063,3.032-0.625
			c0.757-0.56,1.055-1.844,1.055-4.347v-13.502c0-1.35-0.333-2.271-0.989-2.798c-0.792-0.625-2.043-0.723-2.934-0.759v-0.229h8.004
			l7.212,16.202l5.5-13.402c0.494-1.186,0.693-2.437,0.725-2.8h8.004v0.229c-0.594,0.036-1.812,0.2-2.405,0.397
			c-0.821,0.265-1.019,0.89-1.019,1.615v17.947c0,0.724,0.262,1.252,1.019,1.612c0.364,0.201,1.812,0.431,2.44,0.463v0.231"/>
		<path id="Fill-7" fill="#FFFFFF" d="M137.616-13.443h-2.074v7.87c0,0.725,0.231,1.351,1.023,1.647
			c0.393,0.162,1.679,0.33,2.501,0.362v0.232h-11.361v-0.235c0.593-0.032,2.009-0.197,2.438-0.359
			c0.792-0.299,1.019-0.891,1.019-1.616v-17.979c0-0.721-0.197-1.35-1.019-1.645c-0.724-0.264-1.913-0.395-2.505-0.431v-0.229
			h11.431c4.642,0,7.641,1.877,7.641,5.465C146.709-15.68,142.228-13.442,137.616-13.443L137.616-13.443z M137.256-25.396h-1.714
			v11.492h1.153c4.214,0,5.104-3.458,5.104-5.664C141.799-22.433,140.78-25.396,137.256-25.396z"/>
		<path id="Fill-8" fill="#FFFFFF" d="M156.756-2.872c-3.326,0-5.534-1.053-6.621-1.778l-1.089,1.613h-0.327l-0.2-7.968h0.298
			c1.613,4.215,3.985,7.706,7.805,7.706c3.13,0,4.446-2.206,4.446-4.579c0-1.976-1.316-3.458-3.524-4.279
			c-1.678-0.66-2.996-1.088-4.477-1.713c-2.669-1.154-3.952-3.228-3.952-6.093c0-3.524,2.899-6.356,7.18-6.356
			c2.598,0,4.773,0.822,5.894,1.647l1.021-1.483h0.329l0.133,7.638h-0.298c-1.251-3.85-3.227-7.374-7.014-7.374
			c-2.074,0-3.818,1.581-3.818,3.917c0,1.978,1.083,3.261,3.354,4.282c1.486,0.692,3.099,1.118,4.384,1.679
			c2.702,1.219,4.444,2.702,4.444,6.192C164.723-5.803,161.396-2.872,156.756-2.872"/>
	</g>
</g>
</svg>
