<?xml version="1.0" encoding="utf-8"?>
<!-- Generator: Adobe Illustrator 16.0.4, SVG Export Plug-In . SVG Version: 6.00 Build 0)  -->
<!DOCTYPE svg PUBLIC "-//W3C//DTD SVG 1.1//EN" "http://www.w3.org/Graphics/SVG/1.1/DTD/svg11.dtd">
<svg version="1.1" id="Calque_1" xmlns="http://www.w3.org/2000/svg" xmlns:xlink="http://www.w3.org/1999/xlink" x="0px" y="0px"
	 width="1407px" height="901px" viewBox="73 -10 1407 901" enable-background="new 73 -10 1407 901" xml:space="preserve">
<path fill="#D8D8D8" d="M1462.891,521.083l-0.075-0.067l-13.627,1.882l-4.955-21.646l9.159-11.404l0.038-0.047l0.521-3.87
	l-4.95-6.706l12.988-10.328l0.102-0.081l-1.256-7.115l-5.961-8.144l5.909-2.07l0.076-0.027l4.95-8.495l0.029-0.051l0.046-6.653
	l4.367-8.849l-1.709-16.357l3.217-3.307l4.214-20.888l0.029-0.146l-10.606-6.863l-8.646-2.022v-7.996l-8.804-9.494l-4.189-1.543
	l-4.311,4.242l-7.641,0.483l-6.139,16.309l-6.02,2.871l2.487,10.017l-5.555,2.384l-16.982-5.27l-5.14,16.025l2.772,5.546
	l-1.084,7.963l-11.226-0.067l-0.087-0.001l-7.702,7.223l-14.059,1.022l-5.213,3.074l-5.771-8.849l-9.822-0.317l-0.999-6.103
	l-0.01-0.063l-10.296-11.556l-0.062-0.069l-8.681-0.364l-4.076-6.184l-11.896,1.218l-18.95-9.882l0.751-10.158l-2.354-2.556
	l6.516-11.511l-1.083-5.02l-5.292-4.347l2.378-4.919l-6.096-1.19l-7.305,4.56l-16.483-11.359l-0.063-0.044l-9.648,0.711
	l-10.073-3.117l-3.164-4.516l-5.948-0.778l-2.762-3.314l-11.134,1.417l-3.455,3.59l-8.967-4.744l-13.68,5.763l-1.734-3.294
	l-4.707-3.952l-14.327,3.842l-1.936,2.999l-1.212-3.106l-1.8,1.518l-0.84-4.734l12.316-9.111l2.124-5.056l0.023-0.058l-3.011-18.919
	l-7.235-19.977l13.702-40.173l4.86-4.062l3.423-8.968l7.919-5.945l0.051-0.039l6.563-17.697l5.762-6.527l9.177-0.914l5.925-6.409
	l0.058-0.063v-4.261l-6.658-6.957l-1.988-11.856l4.235-9.353l-11.977-3.267l-3.132-4.566l-2.24,3.455l-2.112-0.534l-16.368-26.896
	l0.002-0.001l-0.014-0.017l-0.083-0.137l-0.127-0.208l-0.035,0.026l-8.431-10.959l0.01-0.011l-2.544-3.482l0.072-0.076l-0.157-0.042
	l-0.166-0.227l-0.14,0.147l-12.802-3.359l-85.861-42.245l-0.058-0.028l-4.91,0.543l-4.483-4.733l-10.676-0.688l-9.594-5.41
	l-20.742-3.04l-0.064-0.009l-36.699,17.14l-8.008-2.729l-2.752-9.665l-5.025-3.306l2.553-4.011l-1.743-1.255l6.261,0.835
	l-0.506-4.904l-6.931,0.046l-1.845-3.962l-7.706-0.596l-4.021-4.999l1.758-1.274l-1.141-4.939l-3.664,1.537l0.522,3.309
	l-2.358-0.626l-6.356,4.785l-0.193,5.559l7.159,0.837l5.014,4.861l-3.428,1.964l-0.882,6.622l-11.067-6.401l-9.444-2.03l2.826-10.22
	l-7.25-5.471l2.758-7.234l6.028-1.743l-4.242-6.328l-4.396-2.09l-6.097,4.36L919.582,3.28l-5.775-1.703l-3.578-5.535l-3.264,5.839
	l2.429,6.762l-6.867,6.318l-2.892-3.641l-0.462-14.54l-13.018-0.507l-3.576-3.649l-1.123,6.845l3.735,1.799l0.385,3.929
	l-3.113,1.557l-3.771-3.328l-0.096-0.085l-8.226,2.906l-1.521,3.348l-2.813-2.198l-11.655,5.909l-7.533,10.557l1.453,7.867
	l-3.204-0.043L833.434,43.07l4.658,6.577l-4.667,4.554l2.156,3.824l3.657-0.092l6.544,5.492l6.791-1.103l-1.241,4.268l4.139,4.113
	l-0.376-5.079l5.904,3.816v-2.591l10.95,0.642l-0.977-6.886l1.776-1.144l2.545,3.003v-3.88l5.385-2.407l5.926,3.569l8.219-4.664
	L898,60.066l0.021-0.008l3.955,5.057l-3.874,5.309l-2.111-0.698l2.072-1.817l-1.865-4.216l-4.256,4.502l2.769,12.609l-2.554,4.192
	l-0.853-0.087l-5.437,5.029l-3.99-2.226l3.855-4.982l-1.68-2.687l-9.474-6.255l-6.691-1.111l-3.103,7.054l-8.813,1.229l-3.478,5.283
	l-3.596,0.768l3.515,8.352l6.576-2.079l1.316,3.098l-17.982,6.497l-4.392-1.287l-6.445-3.621l-4.856,5.133l-17.179-2.622l-8.9-7.728
	l-0.252-7.678l-4.235-2.38l-5.76,0.771l-2.59-2.869l-9.529,4.696l-2.307-5.645l-5.416-1.145l-11.244,11.724l-5.25-0.596
	l-3.834,5.396l-8.376,1.236l-5.528,10.605l-6.843-2.971l-14.504,6.337l-19.113-3.3l-4.737,6.354l-9.304-2.879l-0.946-9.47
	l-0.006-0.061l-5.526-7.393l-15.504,2.385l-6.127-2.702l-8.07,13.934l-24.464,7.795l-0.188-0.064l-0.49,0.28l-0.277,0.088
	l0.077,0.026l-5.323,3.047l-6.107-0.357l-12.226-12.536l12.756-1.2l1.522-2.313l1.105,2.085l0.865-3.71l-4.98-6.18l1.856-2.307
	l4.315-4.065l-0.277-0.337l-5.654,4.054l-8.168-1.693l-8.792,8.11l-8.941-6.123l-2.064,6.98l-5.262-0.771l-2.969,5.544
	l-17.792,11.785l0.872,5.425l5.425-3.007l3.294,2.38l-2.288,6.363l-5.648-0.174l-1.741-2.402l-0.378,0.216l3.593,8.278l0.149,2.402
	l-9.336,7.237l-13.584-7.985l-4.74,8.583l3.28-1.281l7.704,3.973l-3.677,5.199l-4.358,1.324l-2.512,5.876l-12.173,6.333
	l-15.955-4.241l0.025-0.127l-0.275,0.061l-0.174-0.046l-0.018,0.088l-14.389,3.162l-11.618,5.809l-3.332-8.115l-11.136,1.637
	l-7.921-3.617l5.047-17.489l5.13-5.555l-10.117,2.359L440,131.319l-4.022,3.767l-12.071,3.322l-12.201-4.92l-4.953-2.465
	l-11.788,4.818l5.82,18.329l-9.096,3.308l-0.067,0.024l-3.861,5.723l-5.977,0.325l-0.777,12.316l-7.364,0.732l-0.023,7.234
	l-8.861,6.442l-0.071,0.052l-1.798,10.113l7.902-3.203l5.932,1.715l0.047,0.013l21.947-3.41l6.809-4.283l9.779,4.667l0.501,6.607
	l3.307,2.02l-4.593,7.12l-11.199,0.997l1.765,5.319l-5.824,8.265l-16.567,3.474l3.784,20.271l-23.057,19.237l-0.052,0.043
	l-1.958,6.967l-10.273,5.91l5.52,2.841l-16.129,16.011l-19.774,9.566l-0.045,7.674l-4.727-0.177l-7.333,4.466l1.149,3.216
	l-4.606,3.583l8.395,7.325l-17.841,10.169l-8.395,13.347l-39.344,14.394l-2.568-3.712l-20.304,21.092l9.891,16.982l-1.247,16.823
	l-5.384,8.746l-0.818,7.744l-2.861,1.604l1.46,5.076l6.993,5.549l-5.867,11.354l-13.614,6.773l-0.08,0.04l-2.186,6.351l-5.518,1.685
	l0.209,2.952l-5.443,3.907l-21.511,10.802l-31.965,33.549l-21.123,17.377l-0.188,0.154l14.357,14.083l-3.121,6.613l-2.45-0.651
	l-7.579,9.428l-5.316,12.922l-7.329,8.308l-0.096,0.108l4.079,8.5l-6.716,11.931l9.751,3.546l17.005,14.226l0.079,0.066l3.007-0.562
	l2.806,5.002l-13.477,21.49l-0.023-0.025l-0.013,0.084l-0.165,0.263l-0.088,0.141l0.161,0.178l-1.552,9.796l-5.616,4.46
	l6.877,15.148l-6.115,5.325l-5.361-4.021l-4.525,2.504l-3.329-1.537l-4.361,6.042l-4.139-3.03l-10.263,8.544l-3.206-1.232
	l0.536,3.215l-3.547-0.723l-4.916,9.241l9.263,6.701l-2.016,4.842l-1.49-1.651l-8.115,20.827l11.709-7.537l10.461,1.711l2.584,2.777
	l4.928-7.626l12.21,0.09l0.682,3.976l10.586,1.309l18.786-12.355l-0.458-5.656l13.683-11.312l4.892,0.364l14.629-8.966l0.051-0.031
	l4.484-8.483l-0.072-5.62l-3.878,0.481l-0.388-4.153l-5.565,5.733l-5.312,0.044l-6.979-11.274l4.539-5.786l-1.443-6.031
	l-8.468-3.753l3.646-7.904l0.101,0.049l2.973-6.19l-0.085-0.044l4.61-8.298l52.115-24.257l28.42-17.617l50.19,1.071l42.398,12.226
	l-5.396,16.145l-0.019,0.057l1.019,4.688l-3.959,5.25l-5.125,1.426l-1.698,4.184l4.288,9.312l0.034,0.072l4.316,2.012l0.25,3.873
	l7.964,4.348l0.885,4.15l5.733,5.174l3.771-0.045l1.676,4.245l-2.957,10.973l-10.259,10.44l-5.487,12.559l2.528,9.429l-5.972,8.364
	l1.334,11.57l0.012,0.103l5.968,3.831l6.051-1.564l19.11,3.529l-4.525,12.721l2.233,9.593l-5.533,9.82l5.599,4.199l9.821-9.223
	l4.288,0.043l0.044,3.989l4.254,1.249l3.5,8.966l5.644,5.126l1.31,6.616l7.839,3.532l0.293,4.109l4.125,3.968l-4.523,4.524
	l8.514,6.077l1.906,13.677l14.93,20.234l2.501,8.129l5.35,0.144l11.515-8.869l5.483,6.799l5.443,2.307l7.837-12.87l9.949-2.308
	l2.765,2.103l11.048-14.57l8.626,4.705l0.073,0.039l6.962-1.574l13.194,7.539l0.168,0.096l4.688-6.326l5.395-0.09l0.089-0.001
	l8.853-8.853l7.221-1.44l-0.231-5.988l7.917-6.173l13.261,2.493l0.251,0.048l0.325-10.047l2.68-3.316l7.165-0.464l4.242,7.548
	l15.173,0.275l0.048,0.001l7.771-3.437l5.403,8.722l0.037,0.061l7.879,3.236l0.09,6.857l4.44,4.957l4.181-0.193l5.053-6.849
	l5.078,0.835l9.615,8.856l6.835-3.959l12.762,4.421l0.095,0.033l2.88-1.684l1.985-24.141l4.078-1.685l0.068-0.027l4.705-7.954
	l21.019-1.042l3.868,1.827l3.394-7.019l3.373-0.138l2.228-6.091l-1.425-3.159l7.017-4.989l-4.094-12.743l3.169-11.799l22.251-5.154
	l0.112-0.025l3.392-8.663l11.542-6.012l-0.736-9.042l4.751-6.908l-8.244-19.793l-0.023-0.056l-7.702-5.765l-1.17-5.143
	l-10.133-4.618l18.934-18.819l8.575,2.61l0.073,0.021l13.247-5.258l0.089-0.035l4.478-11.628l11.403-5.078l0.126-0.057l0.205-8.008
	h6.652l10.293-9.374l0.073-0.066l-0.095-6.243l-8.394-3.812l4.49-7.14l5.874-0.494l0.077-0.006l11.946-11.489l6.832-0.806
	l-0.024,0.178l17.569-5.494l8.001,9.155l-3.764,4.26l4.524,16.636l-2.966,4.039l2.561,10.93l-2.25,3.979l0.593,9.096l-11.869,15.786
	l9.009,14.96l-3.994,4.04l0.319,3.487l5.711,1.843l2.585,5.463l0.041,0.085l18.314,6.022l2.184,7.879l0.018,0.062l7.884,6.97
	l3.132,8.943l0.032,0.091l8.816,3.775l-1.845,6.296l4.955,8.67l10.633-0.526l3.069,4.288l10.738,5.025l0.055,0.025l8.319-0.859
	l7.098-7.814l4.94,8.176l0.032,0.053l7.682,3.98l7.28-3.095l14,11.453l0.156,6.527l-2.735,4.573l-3.646-1.038l0.949,3.97
	l-10.878,11.378l-5.005,11.839l14.77,0.812l11.586,12.178l0.045,0.047l8.394,1.963l0.247,9.901l0.001,0.061l7.958,12.562
	l-0.783,4.861l2.89,2.357l1.611,9.163l2.883,0.439l-9.313,9.445l-0.051,0.052l-0.881,6.557l14.049-5.36l1.925,3.579l6.521-1.202
	l3.993,2.115l-2.068,6.134l14.737,0.357l-1.477-3.825l5.873-12.178l0.023-0.048l-0.182-5.969l12.2-12.996l0.112-0.119l-1.32-2.245
	l-3.167,1.276l-0.067-5.729l-2.415,0.55l-2.545-4.303l-12.295-3.204l-1.514-13.414l-0.013-0.11l-7.277-4.172l1.322-4.627l3.335,0.09
	l1.598-3.726l5.113-1.892l-6.845-19.752l3.192-6.139l9.542-5.313l8.406-1.021l0.133-0.017l3.745-10.081l0.027-0.072l-4.761-14.325
	l14.399-7.177l13.531-15.115l5.494,0.045l4.222-5.012l0.038-0.044l2.073-11.462l5.515-4.301l0.587-7.512l8.654-0.617l1.151-14.74
	l9.851-13.491l0.049-0.066l-0.571-6.663l4.696-5.984l0.085-0.107l-1.926-3.944l1.238-8.484l-6.485-7.214l2.801-7.015l-2.145-3.159
	l0.918-9.311l-8.351-6.698l-1.637-5.739l0.259-2.694l7.767-3.997l1.299-17.452l25.985-5.744l3.396,2.328l-1.833,3.734l1.98,4.547
	l0.025,0.057l11.559,8.078l7.641-14.614l8.146-4.158l-1.242,8.288l-4.461,1.667l6.159,3.7l-3.135,25.617l-0.006,0.05l4.108,12.027
	l-1.577,8.677l11.291,3.449l5.924,17.818l9.19,11.215l2.965-2.201l7.566,5.188l0.054,0.037l7.667,0.183l7.881,3.883l0.104,0.052
	l12.847-7.267l4.383,3.738l0.059,0.051l7.857,0.163l3.732-9.436l0.039-0.096l-2.36-4.238l2.153-8.255l3.539-3.16l2.656-0.583
	l9.785,7.135l0.122,0.09l18.482-12.107l10.832-0.522l0.065-0.003l10.396-7.615l5.836,6.688l2.487-3.826l6.922-1.823l2.441,6.212
	l0.029,0.073l9.747,5.428l-4.654,12.892l6.276,4.009l-2.229,10.264l-0.019,0.087l2.112,3.419l16.769,7.882l1.558,6.872l-4.737,8.64
	l8.009,5.567l6.409-4.656l13.393,0.999l0.104,0.007l13.049-13.674l-6.586-15.865l-11.987-9.824l-3.405-8.075l0.785-8.881
	l6.416-4.076l0.104-0.065l-0.16-7.291l3.653-3.608l6.716-1.244l0.162-0.029l0.951-9.869l0.009-0.087l-1.947-2.521l-3.34,1.781
	l-1.696-6.943l-4.399-1.53l-9.579,4.561l-5.238-0.132l-1.24-3.078l-4.68,0.432l-1.396-5.633l-5.232-2.214l4.193-8.722l0.049-0.101
	l-3.441-6.31l1.733-8.922l-1.758-3.696l3.667-5.375l-3.025-8.896l11.355-10.18l0.076-0.069l-0.226-5.374l6.04-3.031l0.475-12.806
	l8.277,2.125l0.081,0.021l18.175-9.305l7.895,3.878l7.627-7.288l5.824,10.192l-5.411,8.589l-0.048,0.077l1.526,6.712l0.016,0.065
	l2.45,2.303l4.516-2.58l5.566,2.738l2.904,9.334l4.811,1.611l0.072,0.023l4.853-1.76l3.928,3.835l4.022-6.147l13.215,5.21
	l0.085,0.033l6.562-2.884l11.356,9.006l2.435-4.349l3.949-1.178l5.319-30.943L1462.891,521.083z M917.224,41.352l-3.777-2.519
	l0.378-2.787l5.896,2.261l5.363-2.146l4.225,9.628l-3.404,0.66l-4.308-2.671l-8.262,4.581l-1.404-3.135L917.224,41.352z"/>
<rect x="972.312" y="485.124" fill="#B80021" width="203.93" height="78.543"/>
<polygon fill="#B80021" points="1132.242,497.662 1176.242,418.796 1176.242,436.508 1176.242,497.662 "/>
<g>
	<path fill="#FFFFFF" d="M1024.428,543.529c-1.68,0.84-5.459,1.74-10.379,1.74c-13.979,0-21.18-8.699-21.18-20.219
		c0-13.8,9.84-21.479,22.08-21.479c4.739,0,8.339,0.96,9.959,1.8l-1.859,7.26c-1.86-0.78-4.44-1.5-7.68-1.5
		c-7.26,0-12.9,4.38-12.9,13.379c0,8.1,4.801,13.199,12.96,13.199c2.76,0,5.819-0.6,7.62-1.319L1024.428,543.529z"/>
	<path fill="#FFFFFF" d="M1065.647,524.03c0,13.259-8.04,21.3-19.859,21.3c-11.999,0-19.019-9.061-19.019-20.58
		c0-12.119,7.739-21.179,19.679-21.179C1058.867,503.571,1065.647,512.871,1065.647,524.03z M1036.429,524.57
		c0,7.92,3.72,13.5,9.839,13.5c6.18,0,9.72-5.881,9.72-13.74c0-7.26-3.479-13.5-9.779-13.5
		C1040.028,510.83,1036.429,516.711,1036.429,524.57z"/>
	<path fill="#FFFFFF" d="M1080.828,504.23v40.439h-9.18V504.23H1080.828z"/>
	<path fill="#FFFFFF" d="M1088.748,504.771c2.939-0.48,7.319-0.84,12.18-0.84c5.999,0,10.199,0.899,13.079,3.18
		c2.4,1.92,3.72,4.739,3.72,8.459c0,5.16-3.66,8.699-7.14,9.96v0.181c2.82,1.139,4.38,3.84,5.399,7.559
		c1.261,4.561,2.521,9.84,3.301,11.4h-9.36c-0.659-1.141-1.62-4.44-2.819-9.42c-1.08-5.04-2.82-6.42-6.54-6.48h-2.76v15.9h-9.06
		V504.771z M1097.808,522.17h3.6c4.56,0,7.26-2.279,7.26-5.819c0-3.72-2.52-5.579-6.72-5.64c-2.22,0-3.479,0.18-4.14,0.3V522.17z"/>
	<path fill="#FFFFFF" d="M1148.386,527.57h-14.879v9.6h16.619v7.5h-25.799V504.23h24.959v7.5h-15.779v8.4h14.879V527.57z"/>
</g>
<rect x="1189.312" y="55.124" fill="#0D8203" width="233.93" height="98.543"/>
<g>
	<path fill="#FFFFFF" d="M1233.786,91.15c-0.12-3.239-0.239-7.159-0.239-11.078h-0.121c-0.84,3.439-1.959,7.279-2.999,10.438
		l-3.279,10.518h-4.759l-2.88-10.438c-0.88-3.16-1.8-6.999-2.439-10.519h-0.08c-0.16,3.64-0.28,7.799-0.479,11.158l-0.48,10.238
		h-5.639l1.719-26.956h8.119l2.64,8.999c0.84,3.12,1.68,6.479,2.28,9.639h0.119c0.76-3.12,1.68-6.679,2.56-9.679l2.88-8.958h7.959
		l1.479,26.956h-5.959L1233.786,91.15z"/>
	<path fill="#FFFFFF" d="M1250.989,94.549l-1.919,6.919h-6.32l8.239-26.956h7.999l8.358,26.956h-6.56l-2.079-6.919H1250.989z
		 M1257.828,89.99l-1.68-5.719c-0.48-1.6-0.96-3.599-1.359-5.199h-0.08c-0.4,1.6-0.801,3.64-1.24,5.199l-1.6,5.719H1257.828z"/>
	<path fill="#FFFFFF" d="M1271.15,95.189c1.64,0.84,4.159,1.68,6.759,1.68c2.8,0,4.278-1.16,4.278-2.919
		c0-1.68-1.279-2.64-4.519-3.799c-4.479-1.56-7.399-4.04-7.399-7.959c0-4.599,3.84-8.119,10.199-8.119
		c3.039,0,5.279,0.64,6.879,1.36l-1.359,4.919c-1.08-0.52-3-1.28-5.64-1.28s-3.919,1.2-3.919,2.6c0,1.72,1.52,2.48,4.998,3.8
		c4.76,1.759,6.999,4.239,6.999,8.039c0,4.519-3.479,8.358-10.878,8.358c-3.079,0-6.119-0.8-7.639-1.64L1271.15,95.189z"/>
	<path fill="#FFFFFF" d="M1292.75,95.189c1.64,0.84,4.159,1.68,6.759,1.68c2.799,0,4.279-1.16,4.279-2.919
		c0-1.68-1.28-2.64-4.52-3.799c-4.479-1.56-7.398-4.04-7.398-7.959c0-4.599,3.839-8.119,10.198-8.119c3.039,0,5.279,0.64,6.879,1.36
		l-1.36,4.919c-1.079-0.52-2.999-1.28-5.639-1.28s-3.92,1.2-3.92,2.6c0,1.72,1.521,2.48,5,3.8c4.759,1.759,6.998,4.239,6.998,8.039
		c0,4.519-3.479,8.358-10.878,8.358c-3.079,0-6.119-0.8-7.639-1.64L1292.75,95.189z"/>
	<path fill="#FFFFFF" d="M1320.269,74.513v26.956h-6.119V74.513H1320.269z"/>
	<path fill="#FFFFFF" d="M1325.55,74.513h16.478v4.999h-10.358v6.159h9.678v4.959h-9.678v10.838h-6.119V74.513z"/>
	<path fill="#FFFFFF" d="M1354.71,74.873c2.239-0.36,5.159-0.56,8.238-0.56c5.119,0,8.438,0.92,11.038,2.879
		c2.8,2.08,4.56,5.399,4.56,10.158c0,5.159-1.88,8.719-4.479,10.918c-2.839,2.359-7.158,3.479-12.438,3.479
		c-3.16,0-5.399-0.2-6.919-0.4V74.873z M1360.829,96.869c0.52,0.12,1.359,0.12,2.119,0.12c5.52,0.04,9.119-2.999,9.119-9.438
		c0.04-5.599-3.24-8.559-8.479-8.559c-1.359,0-2.239,0.12-2.759,0.24V96.869z"/>
	<path fill="#FFFFFF" d="M1388.629,74.513V90.03c0,4.639,1.76,6.999,4.879,6.999c3.199,0,4.959-2.239,4.959-6.999V74.513h6.079
		V89.63c0,8.318-4.199,12.278-11.238,12.278c-6.799,0-10.798-3.759-10.798-12.358V74.513H1388.629z"/>
	<path fill="#FFFFFF" d="M1241.007,136.708c-1.12,0.56-3.64,1.16-6.919,1.16c-9.318,0-14.117-5.8-14.117-13.479
		c0-9.198,6.559-14.317,14.717-14.317c3.16,0,5.56,0.64,6.64,1.2l-1.239,4.839c-1.24-0.52-2.96-1-5.119-1
		c-4.84,0-8.6,2.92-8.6,8.919c0,5.398,3.199,8.798,8.639,8.798c1.84,0,3.879-0.399,5.08-0.88L1241.007,136.708z"/>
	<path fill="#FFFFFF" d="M1251.688,130.549l-1.919,6.919h-6.32l8.239-26.956h7.999l8.358,26.956h-6.56l-2.079-6.919H1251.688z
		 M1258.527,125.99l-1.68-5.719c-0.48-1.6-0.96-3.599-1.359-5.199h-0.08c-0.4,1.6-0.801,3.64-1.24,5.199l-1.6,5.719H1258.527z"/>
	<path fill="#FFFFFF" d="M1271.649,110.513h6.118v21.836h10.719v5.119h-16.837V110.513z"/>
	<path fill="#FFFFFF" d="M1298.607,130.549l-1.92,6.919h-6.319l8.239-26.956h7.998l8.358,26.956h-6.559l-2.079-6.919H1298.607z
		 M1305.446,125.99l-1.681-5.719c-0.479-1.6-0.959-3.599-1.359-5.199h-0.08c-0.399,1.6-0.8,3.64-1.239,5.199l-1.6,5.719H1305.446z"
		/>
	<path fill="#FFFFFF" d="M1318.567,137.468v-26.956h7.119l5.599,9.878c1.6,2.84,3.199,6.199,4.399,9.238h0.12
		c-0.4-3.56-0.521-7.198-0.521-11.238v-7.879h5.6v26.956h-6.399l-5.759-10.398c-1.6-2.879-3.359-6.358-4.68-9.518l-0.119,0.04
		c0.159,3.559,0.239,7.359,0.239,11.758v8.118H1318.567z"/>
	<path fill="#FFFFFF" d="M1346.167,110.873c2.239-0.36,5.159-0.56,8.238-0.56c5.119,0,8.438,0.92,11.038,2.879
		c2.8,2.08,4.56,5.399,4.56,10.159c0,5.158-1.88,8.718-4.479,10.918c-2.839,2.359-7.158,3.479-12.438,3.479
		c-3.16,0-5.399-0.2-6.919-0.4V110.873z M1352.286,132.869c0.52,0.12,1.359,0.12,2.119,0.12c5.52,0.04,9.119-2.999,9.119-9.438
		c0.04-5.599-3.24-8.558-8.479-8.558c-1.359,0-2.239,0.12-2.759,0.24V132.869z"/>
	<path fill="#FFFFFF" d="M1379.646,130.549l-1.92,6.919h-6.319l8.239-26.956h7.998l8.358,26.956h-6.559l-2.079-6.919H1379.646z
		 M1386.485,125.99l-1.681-5.719c-0.479-1.6-0.959-3.599-1.359-5.199h-0.08c-0.399,1.6-0.8,3.64-1.239,5.199l-1.6,5.719H1386.485z"
		/>
</g>
<g>
	<rect x="1189.268" y="159.124" fill="#06C300" width="233.93" height="98.543"/>
	<g>
		<path fill="#FFFFFF" d="M1211.545,183.632h-7.238v-5.119h20.717v5.119h-7.359v21.836h-6.119V183.632z"/>
		<path fill="#FFFFFF" d="M1244.303,194.07h-9.918v6.399h11.078v4.999h-17.197v-26.956h16.637v4.999h-10.518v5.599h9.918V194.07z"/>
		<path fill="#FFFFFF" d="M1249.625,178.873c1.96-0.32,4.879-0.56,8.119-0.56c3.999,0,6.799,0.6,8.719,2.12
			c1.6,1.28,2.479,3.159,2.479,5.639c0,3.439-2.44,5.799-4.759,6.639v0.12c1.879,0.76,2.919,2.56,3.599,5.039
			c0.84,3.04,1.68,6.559,2.2,7.599h-6.239c-0.44-0.76-1.08-2.959-1.88-6.279c-0.72-3.359-1.879-4.279-4.359-4.319h-1.84v10.598
			h-6.039V178.873z M1255.664,190.471h2.4c3.039,0,4.839-1.52,4.839-3.879c0-2.479-1.68-3.719-4.479-3.759
			c-1.479,0-2.319,0.12-2.76,0.2V190.471z"/>
		<path fill="#FFFFFF" d="M1273.345,178.873c1.96-0.32,4.879-0.56,8.118-0.56c4,0,6.799,0.6,8.719,2.12
			c1.6,1.28,2.479,3.159,2.479,5.639c0,3.439-2.439,5.799-4.759,6.639v0.12c1.88,0.76,2.919,2.56,3.6,5.039
			c0.84,3.04,1.68,6.559,2.199,7.599h-6.239c-0.439-0.76-1.079-2.959-1.88-6.279c-0.719-3.359-1.879-4.279-4.359-4.319h-1.839
			v10.598h-6.039V178.873z M1279.384,190.471h2.399c3.039,0,4.84-1.52,4.84-3.879c0-2.479-1.68-3.719-4.48-3.759
			c-1.479,0-2.318,0.12-2.759,0.2V190.471z"/>
		<path fill="#FFFFFF" d="M1303.184,178.513v26.956h-6.119v-26.956H1303.184z"/>
		<path fill="#FFFFFF" d="M1313.663,183.632h-7.239v-5.119h20.717v5.119h-7.358v21.836h-6.119V183.632z"/>
		<path fill="#FFFFFF" d="M1353.899,191.71c0,8.839-5.359,14.198-13.237,14.198c-7.999,0-12.679-6.039-12.679-13.718
			c0-8.079,5.159-14.118,13.118-14.118C1349.38,178.073,1353.899,184.272,1353.899,191.71z M1334.423,192.07
			c0,5.279,2.479,8.999,6.559,8.999c4.119,0,6.479-3.919,6.479-9.158c0-4.839-2.32-8.999-6.52-8.999
			C1336.822,182.912,1334.423,186.832,1334.423,192.07z"/>
		<path fill="#FFFFFF" d="M1364.022,178.513v26.956h-6.119v-26.956H1364.022z"/>
		<path fill="#FFFFFF" d="M1369.304,178.873c1.96-0.32,4.879-0.56,8.118-0.56c4,0,6.799,0.6,8.719,2.12
			c1.6,1.28,2.479,3.159,2.479,5.639c0,3.439-2.439,5.799-4.759,6.639v0.12c1.88,0.76,2.919,2.56,3.6,5.039
			c0.84,3.04,1.68,6.559,2.199,7.599h-6.239c-0.439-0.76-1.079-2.959-1.879-6.279c-0.721-3.359-1.88-4.279-4.359-4.319h-1.84v10.598
			h-6.039V178.873z M1375.343,190.471h2.399c3.039,0,4.839-1.52,4.839-3.879c0-2.479-1.68-3.719-4.479-3.759
			c-1.48,0-2.32,0.12-2.76,0.2V190.471z"/>
		<path fill="#FFFFFF" d="M1409.06,194.07h-9.918v6.399h11.078v4.999h-17.197v-26.956h16.637v4.999h-10.518v5.599h9.918V194.07z"/>
		<path fill="#FFFFFF" d="M1229.705,214.873c2.24-0.36,5.159-0.56,8.238-0.56c5.119,0,8.439,0.92,11.039,2.879
			c2.799,2.08,4.559,5.399,4.559,10.159c0,5.158-1.88,8.718-4.479,10.918c-2.839,2.359-7.159,3.479-12.438,3.479
			c-3.159,0-5.399-0.2-6.919-0.4V214.873z M1235.824,236.869c0.52,0.12,1.359,0.12,2.119,0.12c5.52,0.04,9.119-2.999,9.119-9.438
			c0.039-5.599-3.24-8.558-8.479-8.558c-1.36,0-2.24,0.12-2.76,0.24V236.869z"/>
		<path fill="#FFFFFF" d="M1263.624,214.513v15.517c0,4.64,1.759,6.999,4.879,6.999c3.2,0,4.959-2.239,4.959-6.999v-15.517h6.079
			v15.118c0,8.318-4.199,12.277-11.238,12.277c-6.799,0-10.798-3.759-10.798-12.357v-15.038H1263.624z"/>
		<path fill="#FFFFFF" d="M1292.904,214.513h6.119v21.836h10.718v5.119h-16.837V214.513z"/>
		<path fill="#FFFFFF" d="M1336.5,227.71c0,8.839-5.359,14.197-13.238,14.197c-7.998,0-12.678-6.038-12.678-13.717
			c0-8.079,5.159-14.118,13.118-14.118C1331.98,214.073,1336.5,220.272,1336.5,227.71z M1317.023,228.071
			c0,5.279,2.479,8.998,6.559,8.998c4.119,0,6.479-3.919,6.479-9.158c0-4.839-2.32-8.999-6.52-8.999
			C1319.423,218.912,1317.023,222.832,1317.023,228.071z"/>
		<path fill="#FFFFFF" d="M1346.583,214.513v15.517c0,4.64,1.76,6.999,4.879,6.999c3.199,0,4.959-2.239,4.959-6.999v-15.517h6.079
			v15.118c0,8.318-4.199,12.277-11.238,12.277c-6.799,0-10.798-3.759-10.798-12.357v-15.038H1346.583z"/>
		<path fill="#FFFFFF" d="M1367.783,214.873c1.88-0.32,4.52-0.56,8.238-0.56c3.76,0,6.439,0.72,8.239,2.16
			c1.72,1.359,2.879,3.599,2.879,6.239s-0.88,4.879-2.479,6.398c-2.079,1.96-5.159,2.84-8.759,2.84c-0.8,0-1.52-0.04-2.079-0.12
			v9.639h-6.039V214.873z M1373.822,227.111c0.52,0.12,1.159,0.16,2.039,0.16c3.24,0,5.239-1.64,5.239-4.399
			c0-2.48-1.72-3.959-4.759-3.959c-1.24,0-2.08,0.12-2.52,0.24V227.111z"/>
	</g>
</g>
<g>
	<g>
		<path fill="#FFFFFF" d="M510.26,429.18c2.46,1.26,6.24,2.52,10.14,2.52c4.2,0,6.42-1.74,6.42-4.379c0-2.52-1.92-3.96-6.78-5.7
			c-6.72-2.34-11.1-6.06-11.1-11.939c0-6.899,5.76-12.179,15.299-12.179c4.56,0,7.92,0.96,10.319,2.04l-2.04,7.38
			c-1.62-0.78-4.5-1.92-8.46-1.92c-3.959,0-5.879,1.8-5.879,3.9c0,2.58,2.28,3.72,7.5,5.7c7.14,2.64,10.5,6.36,10.5,12.06
			c0,6.78-5.22,12.54-16.319,12.54c-4.62,0-9.18-1.2-11.459-2.46L510.26,429.18z"/>
		<path fill="#FFFFFF" d="M551.479,398.161v23.279c0,6.959,2.64,10.5,7.32,10.5c4.8,0,7.439-3.36,7.439-10.5v-23.279h9.119v22.679
			c0,12.479-6.299,18.419-16.859,18.419c-10.2,0-16.199-5.64-16.199-18.54v-22.559H551.479z"/>
		<path fill="#FFFFFF" d="M592.459,398.161V438.6h-9.18v-40.438H592.459z"/>
		<path fill="#FFFFFF" d="M600.679,429.18c2.46,1.26,6.24,2.52,10.14,2.52c4.2,0,6.42-1.74,6.42-4.379c0-2.52-1.92-3.96-6.78-5.7
			c-6.72-2.34-11.1-6.06-11.1-11.939c0-6.899,5.76-12.179,15.3-12.179c4.56,0,7.92,0.96,10.319,2.04l-2.04,7.38
			c-1.619-0.78-4.499-1.92-8.459-1.92s-5.88,1.8-5.88,3.9c0,2.58,2.279,3.72,7.499,5.7c7.141,2.64,10.5,6.36,10.5,12.06
			c0,6.78-5.22,12.54-16.319,12.54c-4.62,0-9.18-1.2-11.46-2.46L600.679,429.18z"/>
		<path fill="#FFFFFF" d="M633.078,429.18c2.46,1.26,6.24,2.52,10.14,2.52c4.2,0,6.42-1.74,6.42-4.379c0-2.52-1.92-3.96-6.78-5.7
			c-6.72-2.34-11.1-6.06-11.1-11.939c0-6.899,5.76-12.179,15.3-12.179c4.56,0,7.92,0.96,10.319,2.04l-2.04,7.38
			c-1.619-0.78-4.499-1.92-8.459-1.92s-5.88,1.8-5.88,3.9c0,2.58,2.279,3.72,7.5,5.7c7.14,2.64,10.499,6.36,10.499,12.06
			c0,6.78-5.22,12.54-16.319,12.54c-4.62,0-9.18-1.2-11.459-2.46L633.078,429.18z"/>
		<path fill="#FFFFFF" d="M689.236,421.5h-14.879v9.6h16.619v7.5h-25.799v-40.438h24.959v7.5h-15.779v8.399h14.879V421.5z"/>
	</g>
</g>
<path fill="#06C300" d="M1171.98,344.524c1.191,0.163,6.133-0.669,7.161-0.037s3.322,4.667,3.797,5.774s0.079,3.006,1.187,4.667
	s4.351,3.006,4.825,3.164s1.266-0.08,0.554,9.967c0,4.035,1.898,5.458,3.401,6.25s0.87,8.068-0.712,11.312s-3.006,6.249-3.164,8.701
	s-0.633,5.695-3.56,9.492s-7.831,8.858-7.989,9.413s-0.158,3.481-2.927,4.272s-24.759,9.097-26.895,11.944s-1.582,1.345-2.136,3.48
	s-1.819,2.452-2.61,3.48s-2.215,2.769-2.61,4.43s-3.955,2.61-7.673,1.187s-9.729-1.819-12.498-0.237s-3.718,4.351-6.486,0.316
	s-2.848-6.645-2.848-7.831s0.87-3.955,4.509-4.113s3.797-2.531,3.876-3.48s2.689-3.006,3.718-3.323s2.136-5.062,0.316-7.594
	s-6.249-7.119-6.645-8.622s-3.718-4.271-4.509-4.904s-1.661-6.803-1.661-7.989s-1.503-2.926-1.898-3.559s-1.266-3.322-1.187-3.797
	s-3.006-2.61-3.322-3.164s-2.057-3.244,2.769-6.17s5.458-5.616,9.413-5.537s14.08,0.475,16.058,0.554s9.651-0.158,14.397-4.746
	c1.898-2.215-0.396-5.458-0.396-6.328s0.158-4.43,6.645-4.271c2.531,0.079,2.927-2.531,3.48-3.639s2.531-1.187,3.243-1.187
	c0,0,2.135-2.136,2.688-4.746s4.431-4.667,6.883-4.113S1170.789,344.361,1171.98,344.524z"/>
<path fill="#0D8203" d="M1171.98,344.524c0.929-0.764,6.133-0.669,7.161-0.037s3.322,4.667,3.797,5.774s0.079,3.006,1.187,4.667
	s4.351,3.006,4.825,3.164s1.266-0.08,0.554,9.967c0,4.035,1.898,5.458,3.401,6.25s0.87,8.068-0.712,11.312s-3.006,6.249-3.164,8.701
	s-0.633,5.695-3.56,9.492s-7.831,8.858-7.989,9.413s-0.158,3.481-2.927,4.272s-23.046,7.361-25.67,4.955
	c-5.919-5.427,4.648-16.319,6.027-18.693c1.465-1.23,1.938-9.387,6.685-13.975c1.898-2.215,9.017-16.572,9.017-17.442
	s-0.76-7.789-0.739-10.791C1169.688,358.917,1166.917,348.693,1171.98,344.524z"/>
</svg>
